<svg width="308" height="108" viewBox="0 0 308 108" fill="none" xmlns="http://www.w3.org/2000/svg">
<path d="M100 12L100 88" stroke="#DCAC64" stroke-width="2" stroke-linecap="round"/>
<path d="M139.089 22.288C136.017 22.288 133.697 22.992 132.129 24.4C130.593 25.776 129.825 27.792 129.825 30.448V34.288H145.185V38.416H129.825V52H125.025V30.4C125.025 26.528 126.241 23.504 128.673 21.328C131.137 19.12 134.561 18.016 138.945 18.016C140.865 18.016 142.657 18.24 144.321 18.688C145.985 19.104 147.425 19.728 148.641 20.56L147.057 24.544C144.913 23.04 142.257 22.288 139.089 22.288ZM152.813 26.56H157.421V52H152.813V26.56ZM155.117 21.664C154.221 21.664 153.469 21.376 152.861 20.8C152.285 20.224 151.997 19.52 151.997 18.688C151.997 17.856 152.285 17.152 152.861 16.576C153.469 15.968 154.221 15.664 155.117 15.664C156.013 15.664 156.749 15.952 157.325 16.528C157.933 17.072 158.237 17.76 158.237 18.592C158.237 19.456 157.933 20.192 157.325 20.8C156.749 21.376 156.013 21.664 155.117 21.664ZM179.804 26.32C183.036 26.32 185.596 27.264 187.484 29.152C189.404 31.008 190.364 33.744 190.364 37.36V52H185.756V37.888C185.756 35.424 185.164 33.568 183.98 32.32C182.796 31.072 181.1 30.448 178.892 30.448C176.396 30.448 174.428 31.184 172.988 32.656C171.548 34.096 170.828 36.176 170.828 38.896V52H166.22V26.56H170.636V30.4C171.564 29.088 172.812 28.08 174.38 27.376C175.98 26.672 177.788 26.32 179.804 26.32ZM206.619 52.288C204.155 52.288 202.251 51.616 200.907 50.272C199.563 48.896 198.891 46.976 198.891 44.512V16.384H203.499V44.128C203.499 45.504 203.819 46.56 204.459 47.296C205.131 48.032 206.123 48.4 207.435 48.4C208.235 48.4 208.987 48.24 209.691 47.92L209.931 51.712C208.875 52.096 207.771 52.288 206.619 52.288ZM237.845 26.56V52H233.429V47.968C232.405 49.376 231.109 50.448 229.541 51.184C227.973 51.92 226.245 52.288 224.357 52.288C221.893 52.288 219.685 51.744 217.733 50.656C215.781 49.568 214.245 48.048 213.125 46.096C212.037 44.112 211.493 41.84 211.493 39.28C211.493 36.72 212.037 34.464 213.125 32.512C214.245 30.56 215.781 29.04 217.733 27.952C219.685 26.864 221.893 26.32 224.357 26.32C226.181 26.32 227.861 26.672 229.397 27.376C230.933 28.048 232.213 29.056 233.237 30.4V26.56H237.845ZM224.741 48.256C226.341 48.256 227.797 47.888 229.109 47.152C230.421 46.384 231.445 45.328 232.181 43.984C232.917 42.608 233.285 41.04 233.285 39.28C233.285 37.52 232.917 35.968 232.181 34.624C231.445 33.248 230.421 32.192 229.109 31.456C227.797 30.72 226.341 30.352 224.741 30.352C223.109 30.352 221.637 30.72 220.325 31.456C219.045 32.192 218.021 33.248 217.253 34.624C216.517 35.968 216.149 37.52 216.149 39.28C216.149 41.04 216.517 42.608 217.253 43.984C218.021 45.328 219.045 46.384 220.325 47.152C221.637 47.888 223.109 48.256 224.741 48.256ZM260.147 26.32C263.379 26.32 265.939 27.264 267.827 29.152C269.747 31.008 270.707 33.744 270.707 37.36V52H266.099V37.888C266.099 35.424 265.507 33.568 264.323 32.32C263.139 31.072 261.443 30.448 259.235 30.448C256.739 30.448 254.771 31.184 253.331 32.656C251.891 34.096 251.171 36.176 251.171 38.896V52H246.563V26.56H250.979V30.4C251.907 29.088 253.155 28.08 254.723 27.376C256.323 26.672 258.131 26.32 260.147 26.32ZM303.376 16.384V52H298.96V47.968C297.936 49.376 296.64 50.448 295.072 51.184C293.504 51.92 291.776 52.288 289.888 52.288C287.424 52.288 285.216 51.744 283.264 50.656C281.312 49.568 279.776 48.048 278.656 46.096C277.568 44.112 277.024 41.84 277.024 39.28C277.024 36.72 277.568 34.464 278.656 32.512C279.776 30.56 281.312 29.04 283.264 27.952C285.216 26.864 287.424 26.32 289.888 26.32C291.712 26.32 293.392 26.672 294.928 27.376C296.464 28.048 297.744 29.056 298.768 30.4V16.384H303.376ZM290.272 48.256C291.872 48.256 293.328 47.888 294.64 47.152C295.952 46.384 296.976 45.328 297.712 43.984C298.448 42.608 298.816 41.04 298.816 39.28C298.816 37.52 298.448 35.968 297.712 34.624C296.976 33.248 295.952 32.192 294.64 31.456C293.328 30.72 291.872 30.352 290.272 30.352C288.64 30.352 287.168 30.72 285.856 31.456C284.576 32.192 283.552 33.248 282.784 34.624C282.048 35.968 281.68 37.52 281.68 39.28C281.68 41.04 282.048 42.608 282.784 43.984C283.552 45.328 284.576 46.384 285.856 47.152C287.168 47.888 288.64 48.256 290.272 48.256ZM156.693 75.192C158.973 75.192 160.809 74.424 162.201 72.888L164.073 75.12C163.233 76.128 162.165 76.896 160.869 77.424C159.597 77.952 158.169 78.216 156.585 78.216C154.569 78.216 152.781 77.808 151.221 76.992C149.661 76.152 148.449 74.988 147.585 73.5C146.745 72.012 146.325 70.332 146.325 68.46C146.325 66.612 146.733 64.944 147.549 63.456C148.389 61.968 149.529 60.816 150.969 60C152.433 59.16 154.077 58.74 155.901 58.74C157.629 58.74 159.201 59.136 160.617 59.928C162.033 60.696 163.161 61.788 164.001 63.204C164.841 64.62 165.273 66.252 165.297 68.1L150.141 71.052C150.621 72.372 151.425 73.392 152.553 74.112C153.705 74.832 155.085 75.192 156.693 75.192ZM155.901 61.656C154.701 61.656 153.621 61.932 152.661 62.484C151.725 63.036 150.993 63.816 150.465 64.824C149.937 65.808 149.673 66.96 149.673 68.28V68.64L161.877 66.336C161.565 64.944 160.869 63.816 159.789 62.952C158.709 62.088 157.413 61.656 155.901 61.656ZM181.772 78L176.264 70.692L170.684 78H166.832L174.356 68.244L167.192 58.92H171.044L176.3 65.796L181.52 58.92H185.3L178.1 68.244L185.696 78H181.772ZM199.583 58.74C201.431 58.74 203.087 59.148 204.551 59.964C206.015 60.78 207.155 61.92 207.971 63.384C208.811 64.848 209.231 66.54 209.231 68.46C209.231 70.38 208.811 72.084 207.971 73.572C207.155 75.036 206.015 76.176 204.551 76.992C203.087 77.808 201.431 78.216 199.583 78.216C198.215 78.216 196.955 77.952 195.803 77.424C194.675 76.896 193.715 76.128 192.923 75.12V84.984H189.467V58.92H192.779V61.944C193.547 60.888 194.519 60.096 195.695 59.568C196.871 59.016 198.167 58.74 199.583 58.74ZM199.295 75.192C200.519 75.192 201.611 74.916 202.571 74.364C203.555 73.788 204.323 72.996 204.875 71.988C205.451 70.956 205.739 69.78 205.739 68.46C205.739 67.14 205.451 65.976 204.875 64.968C204.323 63.936 203.555 63.144 202.571 62.592C201.611 62.04 200.519 61.764 199.295 61.764C198.095 61.764 197.003 62.052 196.019 62.628C195.059 63.18 194.291 63.96 193.715 64.968C193.163 65.976 192.887 67.14 192.887 68.46C192.887 69.78 193.163 70.956 193.715 71.988C194.267 72.996 195.035 73.788 196.019 74.364C197.003 74.916 198.095 75.192 199.295 75.192ZM217.318 62.124C217.918 61.02 218.806 60.18 219.982 59.604C221.158 59.028 222.586 58.74 224.266 58.74V62.088C224.074 62.064 223.81 62.052 223.474 62.052C221.602 62.052 220.126 62.616 219.046 63.744C217.99 64.848 217.462 66.432 217.462 68.496V78H214.006V58.92H217.318V62.124ZM236.954 75.192C239.234 75.192 241.07 74.424 242.462 72.888L244.334 75.12C243.494 76.128 242.426 76.896 241.13 77.424C239.858 77.952 238.43 78.216 236.846 78.216C234.83 78.216 233.042 77.808 231.482 76.992C229.922 76.152 228.71 74.988 227.846 73.5C227.006 72.012 226.586 70.332 226.586 68.46C226.586 66.612 226.994 64.944 227.81 63.456C228.65 61.968 229.79 60.816 231.23 60C232.694 59.16 234.338 58.74 236.162 58.74C237.89 58.74 239.462 59.136 240.878 59.928C242.294 60.696 243.422 61.788 244.262 63.204C245.102 64.62 245.534 66.252 245.558 68.1L230.402 71.052C230.882 72.372 231.686 73.392 232.814 74.112C233.966 74.832 235.346 75.192 236.954 75.192ZM236.162 61.656C234.962 61.656 233.882 61.932 232.922 62.484C231.986 63.036 231.254 63.816 230.726 64.824C230.198 65.808 229.934 66.96 229.934 68.28V68.64L242.138 66.336C241.826 64.944 241.13 63.816 240.05 62.952C238.97 62.088 237.674 61.656 236.162 61.656ZM255.865 78.216C254.305 78.216 252.805 78.012 251.365 77.604C249.925 77.172 248.797 76.632 247.981 75.984L249.421 73.248C250.261 73.848 251.281 74.328 252.481 74.688C253.681 75.048 254.893 75.228 256.117 75.228C259.141 75.228 260.653 74.364 260.653 72.636C260.653 72.06 260.449 71.604 260.041 71.268C259.633 70.932 259.117 70.692 258.493 70.548C257.893 70.38 257.029 70.2 255.901 70.008C254.365 69.768 253.105 69.492 252.121 69.18C251.161 68.868 250.333 68.34 249.637 67.596C248.941 66.852 248.593 65.808 248.593 64.464C248.593 62.736 249.313 61.356 250.753 60.324C252.193 59.268 254.125 58.74 256.549 58.74C257.821 58.74 259.093 58.896 260.365 59.208C261.637 59.52 262.681 59.94 263.497 60.468L262.021 63.204C260.461 62.196 258.625 61.692 256.513 61.692C255.049 61.692 253.933 61.932 253.165 62.412C252.397 62.892 252.013 63.528 252.013 64.32C252.013 64.944 252.229 65.436 252.661 65.796C253.093 66.156 253.621 66.42 254.245 66.588C254.893 66.756 255.793 66.948 256.945 67.164C258.481 67.428 259.717 67.716 260.653 68.028C261.613 68.316 262.429 68.82 263.101 69.54C263.773 70.26 264.109 71.268 264.109 72.564C264.109 74.292 263.365 75.672 261.877 76.704C260.413 77.712 258.409 78.216 255.865 78.216ZM273.9 78.216C272.34 78.216 270.84 78.012 269.4 77.604C267.96 77.172 266.832 76.632 266.016 75.984L267.456 73.248C268.296 73.848 269.316 74.328 270.516 74.688C271.716 75.048 272.928 75.228 274.152 75.228C277.176 75.228 278.688 74.364 278.688 72.636C278.688 72.06 278.484 71.604 278.076 71.268C277.668 70.932 277.152 70.692 276.528 70.548C275.928 70.38 275.064 70.2 273.936 70.008C272.4 69.768 271.14 69.492 270.156 69.18C269.196 68.868 268.368 68.34 267.672 67.596C266.976 66.852 266.628 65.808 266.628 64.464C266.628 62.736 267.348 61.356 268.788 60.324C270.228 59.268 272.16 58.74 274.584 58.74C275.856 58.74 277.128 58.896 278.4 59.208C279.672 59.52 280.716 59.94 281.532 60.468L280.056 63.204C278.496 62.196 276.66 61.692 274.548 61.692C273.084 61.692 271.968 61.932 271.2 62.412C270.432 62.892 270.048 63.528 270.048 64.32C270.048 64.944 270.264 65.436 270.696 65.796C271.128 66.156 271.656 66.42 272.28 66.588C272.928 66.756 273.828 66.948 274.98 67.164C276.516 67.428 277.752 67.716 278.688 68.028C279.648 68.316 280.464 68.82 281.136 69.54C281.808 70.26 282.144 71.268 282.144 72.564C282.144 74.292 281.4 75.672 279.912 76.704C278.448 77.712 276.444 78.216 273.9 78.216Z" fill="#DCAC64"/>
<g filter="url(#filter0_d)">
<path d="M68.2716 8.11713H63.0963C61.2305 8.11713 59.7184 9.53988 59.7184 11.2949V28.9917C59.7184 30.7467 61.2305 32.1695 63.0963 32.1695H68.2716C70.1374 32.1695 71.6496 30.7467 71.6496 28.9917V11.2949C71.6496 9.53988 70.1374 8.11713 68.2716 8.11713Z" fill="#DCAC64" fill-opacity="0.95"/>
<path d="M48.92 98.395V81.6299H70.8575L51.83 99.5303C51.5915 99.7549 51.2876 99.9075 50.9568 99.9693C50.626 100.031 50.2831 99.9994 49.9715 99.8778C49.66 99.7563 49.3938 99.5503 49.2066 99.2863C49.0194 99.0227 48.9197 98.7123 48.92 98.395Z" fill="#DCAC64" fill-opacity="0.95"/>
<path d="M72.0328 80.5883H48.92V82.5978H69.7857L72.0328 80.5883Z" fill="#DCAC64" fill-opacity="0.95"/>
<path d="M76.7844 30.9501L45.2141 1.2479C44.3603 0.448672 43.2048 0 42.0003 0C40.7958 0 39.6403 0.448672 38.7865 1.2479L7.21671 30.9501C5.29023 32.9658 4.15509 35.541 4 38.2476V43.4795C21.2477 55.5514 42.1807 62.0559 63.6783 62.0235C69.1456 62.0244 74.6039 61.6063 79.9991 60.7735V38.2476C79.8423 35.5417 78.7084 32.9672 76.7844 30.9501Z" fill="#DCAC64" fill-opacity="0.95"/>
<path d="M63.6792 66.834C42.1816 66.866 21.2487 60.3615 4.00087 48.2901V76.5516C4.00477 77.6847 4.48487 78.7699 5.33636 79.5707C6.18785 80.372 7.3416 80.8235 8.54579 80.8272H75.4556C76.6595 80.8235 77.8131 80.3716 78.6649 79.5707C79.5162 78.7695 79.9961 77.6842 80 76.5516V65.584C74.6048 66.4169 69.1464 66.8349 63.6792 66.834Z" fill="#DCAC64" fill-opacity="0.95"/>
</g>
<defs>
<filter id="filter0_d" x="0" y="0" width="84" height="108" filterUnits="userSpaceOnUse" color-interpolation-filters="sRGB">
<feFlood flood-opacity="0" result="BackgroundImageFix"/>
<feColorMatrix in="SourceAlpha" type="matrix" values="0 0 0 0 0 0 0 0 0 0 0 0 0 0 0 0 0 0 127 0"/>
<feOffset dy="4"/>
<feGaussianBlur stdDeviation="2"/>
<feColorMatrix type="matrix" values="0 0 0 0 0 0 0 0 0 0 0 0 0 0 0 0 0 0 0.25 0"/>
<feBlend mode="normal" in2="BackgroundImageFix" result="effect1_dropShadow"/>
<feBlend mode="normal" in="SourceGraphic" in2="effect1_dropShadow" result="shape"/>
</filter>
</defs>
</svg>
