<svg width="200" height="74" viewBox="0 0 200 74" fill="none" xmlns="http://www.w3.org/2000/svg">
<path d="M78 6L78 60" stroke="#DCAC64" stroke-width="2" stroke-linecap="round"/>
<path d="M108.423 12.906C106.759 12.906 105.503 13.2873 104.653 14.05C103.821 14.7953 103.405 15.8873 103.405 17.326V19.406H111.725V21.642H103.405V29H100.805V17.3C100.805 15.2027 101.464 13.5647 102.781 12.386C104.116 11.19 105.971 10.592 108.345 10.592C109.385 10.592 110.356 10.7133 111.257 10.956C112.159 11.1813 112.939 11.5193 113.597 11.97L112.739 14.128C111.578 13.3133 110.139 12.906 108.423 12.906ZM115.857 15.22H118.353V29H115.857V15.22ZM117.105 12.568C116.62 12.568 116.213 12.412 115.883 12.1C115.571 11.788 115.415 11.4067 115.415 10.956C115.415 10.5053 115.571 10.124 115.883 9.812C116.213 9.48267 116.62 9.318 117.105 9.318C117.591 9.318 117.989 9.474 118.301 9.786C118.631 10.0807 118.795 10.4533 118.795 10.904C118.795 11.372 118.631 11.7707 118.301 12.1C117.989 12.412 117.591 12.568 117.105 12.568ZM130.477 15.09C132.228 15.09 133.614 15.6013 134.637 16.624C135.677 17.6293 136.197 19.1113 136.197 21.07V29H133.701V21.356C133.701 20.0213 133.38 19.016 132.739 18.34C132.098 17.664 131.179 17.326 129.983 17.326C128.631 17.326 127.565 17.7247 126.785 18.522C126.005 19.302 125.615 20.4287 125.615 21.902V29H123.119V15.22H125.511V17.3C126.014 16.5893 126.69 16.0433 127.539 15.662C128.406 15.2807 129.385 15.09 130.477 15.09ZM145.002 29.156C143.668 29.156 142.636 28.792 141.908 28.064C141.18 27.3187 140.816 26.2787 140.816 24.944V9.708H143.312V24.736C143.312 25.4813 143.486 26.0533 143.832 26.452C144.196 26.8507 144.734 27.05 145.444 27.05C145.878 27.05 146.285 26.9633 146.666 26.79L146.796 28.844C146.224 29.052 145.626 29.156 145.002 29.156ZM161.916 15.22V29H159.524V26.816C158.969 27.5787 158.267 28.1593 157.418 28.558C156.568 28.9567 155.632 29.156 154.61 29.156C153.275 29.156 152.079 28.8613 151.022 28.272C149.964 27.6827 149.132 26.8593 148.526 25.802C147.936 24.7273 147.642 23.4967 147.642 22.11C147.642 20.7233 147.936 19.5013 148.526 18.444C149.132 17.3867 149.964 16.5633 151.022 15.974C152.079 15.3847 153.275 15.09 154.61 15.09C155.598 15.09 156.508 15.2807 157.34 15.662C158.172 16.026 158.865 16.572 159.42 17.3V15.22H161.916ZM154.818 26.972C155.684 26.972 156.473 26.7727 157.184 26.374C157.894 25.958 158.449 25.386 158.848 24.658C159.246 23.9127 159.446 23.0633 159.446 22.11C159.446 21.1567 159.246 20.316 158.848 19.588C158.449 18.8427 157.894 18.2707 157.184 17.872C156.473 17.4733 155.684 17.274 154.818 17.274C153.934 17.274 153.136 17.4733 152.426 17.872C151.732 18.2707 151.178 18.8427 150.762 19.588C150.363 20.316 150.164 21.1567 150.164 22.11C150.164 23.0633 150.363 23.9127 150.762 24.658C151.178 25.386 151.732 25.958 152.426 26.374C153.136 26.7727 153.934 26.972 154.818 26.972ZM173.996 15.09C175.747 15.09 177.134 15.6013 178.156 16.624C179.196 17.6293 179.716 19.1113 179.716 21.07V29H177.22V21.356C177.22 20.0213 176.9 19.016 176.258 18.34C175.617 17.664 174.698 17.326 173.502 17.326C172.15 17.326 171.084 17.7247 170.304 18.522C169.524 19.302 169.134 20.4287 169.134 21.902V29H166.638V15.22H169.03V17.3C169.533 16.5893 170.209 16.0433 171.058 15.662C171.925 15.2807 172.904 15.09 173.996 15.09ZM197.412 9.708V29H195.02V26.816C194.465 27.5787 193.763 28.1593 192.914 28.558C192.065 28.9567 191.129 29.156 190.106 29.156C188.771 29.156 187.575 28.8613 186.518 28.272C185.461 27.6827 184.629 26.8593 184.022 25.802C183.433 24.7273 183.138 23.4967 183.138 22.11C183.138 20.7233 183.433 19.5013 184.022 18.444C184.629 17.3867 185.461 16.5633 186.518 15.974C187.575 15.3847 188.771 15.09 190.106 15.09C191.094 15.09 192.004 15.2807 192.836 15.662C193.668 16.026 194.361 16.572 194.916 17.3V9.708H197.412ZM190.314 26.972C191.181 26.972 191.969 26.7727 192.68 26.374C193.391 25.958 193.945 25.386 194.344 24.658C194.743 23.9127 194.942 23.0633 194.942 22.11C194.942 21.1567 194.743 20.316 194.344 19.588C193.945 18.8427 193.391 18.2707 192.68 17.872C191.969 17.4733 191.181 17.274 190.314 17.274C189.43 17.274 188.633 17.4733 187.922 17.872C187.229 18.2707 186.674 18.8427 186.258 19.588C185.859 20.316 185.66 21.1567 185.66 22.11C185.66 23.0633 185.859 23.9127 186.258 24.658C186.674 25.386 187.229 25.958 187.922 26.374C188.633 26.7727 189.43 26.972 190.314 26.972ZM110.795 53.128C112.315 53.128 113.539 52.616 114.467 51.592L115.715 53.08C115.155 53.752 114.443 54.264 113.579 54.616C112.731 54.968 111.779 55.144 110.723 55.144C109.379 55.144 108.187 54.872 107.147 54.328C106.107 53.768 105.299 52.992 104.723 52C104.163 51.008 103.883 49.888 103.883 48.64C103.883 47.408 104.155 46.296 104.699 45.304C105.259 44.312 106.019 43.544 106.979 43C107.955 42.44 109.051 42.16 110.267 42.16C111.419 42.16 112.467 42.424 113.411 42.952C114.355 43.464 115.107 44.192 115.667 45.136C116.227 46.08 116.515 47.168 116.531 48.4L106.427 50.368C106.747 51.248 107.283 51.928 108.035 52.408C108.803 52.888 109.723 53.128 110.795 53.128ZM110.267 44.104C109.467 44.104 108.747 44.288 108.107 44.656C107.483 45.024 106.995 45.544 106.643 46.216C106.291 46.872 106.115 47.64 106.115 48.52V48.76L114.251 47.224C114.043 46.296 113.579 45.544 112.859 44.968C112.139 44.392 111.275 44.104 110.267 44.104ZM127.515 55L123.843 50.128L120.123 55H117.555L122.571 48.496L117.795 42.28H120.363L123.867 46.864L127.347 42.28H129.867L125.067 48.496L130.131 55H127.515ZM139.389 42.16C140.621 42.16 141.725 42.432 142.701 42.976C143.677 43.52 144.437 44.28 144.981 45.256C145.541 46.232 145.821 47.36 145.821 48.64C145.821 49.92 145.541 51.056 144.981 52.048C144.437 53.024 143.677 53.784 142.701 54.328C141.725 54.872 140.621 55.144 139.389 55.144C138.477 55.144 137.637 54.968 136.869 54.616C136.117 54.264 135.477 53.752 134.949 53.08V59.656H132.645V42.28H134.853V44.296C135.365 43.592 136.013 43.064 136.797 42.712C137.581 42.344 138.445 42.16 139.389 42.16ZM139.197 53.128C140.013 53.128 140.741 52.944 141.381 52.576C142.037 52.192 142.549 51.664 142.917 50.992C143.301 50.304 143.493 49.52 143.493 48.64C143.493 47.76 143.301 46.984 142.917 46.312C142.549 45.624 142.037 45.096 141.381 44.728C140.741 44.36 140.013 44.176 139.197 44.176C138.397 44.176 137.669 44.368 137.013 44.752C136.373 45.12 135.861 45.64 135.477 46.312C135.109 46.984 134.925 47.76 134.925 48.64C134.925 49.52 135.109 50.304 135.477 50.992C135.845 51.664 136.357 52.192 137.013 52.576C137.669 52.944 138.397 53.128 139.197 53.128ZM151.212 44.416C151.612 43.68 152.204 43.12 152.988 42.736C153.772 42.352 154.724 42.16 155.844 42.16V44.392C155.716 44.376 155.54 44.368 155.316 44.368C154.068 44.368 153.084 44.744 152.364 45.496C151.66 46.232 151.308 47.288 151.308 48.664V55H149.004V42.28H151.212V44.416ZM164.303 53.128C165.823 53.128 167.047 52.616 167.975 51.592L169.223 53.08C168.663 53.752 167.951 54.264 167.087 54.616C166.239 54.968 165.287 55.144 164.231 55.144C162.887 55.144 161.695 54.872 160.655 54.328C159.615 53.768 158.807 52.992 158.231 52C157.671 51.008 157.391 49.888 157.391 48.64C157.391 47.408 157.663 46.296 158.207 45.304C158.767 44.312 159.527 43.544 160.487 43C161.463 42.44 162.559 42.16 163.775 42.16C164.927 42.16 165.975 42.424 166.919 42.952C167.863 43.464 168.615 44.192 169.175 45.136C169.735 46.08 170.023 47.168 170.039 48.4L159.935 50.368C160.255 51.248 160.791 51.928 161.543 52.408C162.311 52.888 163.231 53.128 164.303 53.128ZM163.775 44.104C162.975 44.104 162.255 44.288 161.615 44.656C160.991 45.024 160.503 45.544 160.151 46.216C159.799 46.872 159.623 47.64 159.623 48.52V48.76L167.759 47.224C167.551 46.296 167.087 45.544 166.367 44.968C165.647 44.392 164.783 44.104 163.775 44.104ZM176.91 55.144C175.87 55.144 174.87 55.008 173.91 54.736C172.95 54.448 172.198 54.088 171.654 53.656L172.614 51.832C173.174 52.232 173.854 52.552 174.654 52.792C175.454 53.032 176.262 53.152 177.078 53.152C179.094 53.152 180.102 52.576 180.102 51.424C180.102 51.04 179.966 50.736 179.694 50.512C179.422 50.288 179.078 50.128 178.662 50.032C178.262 49.92 177.686 49.8 176.934 49.672C175.91 49.512 175.07 49.328 174.414 49.12C173.774 48.912 173.222 48.56 172.758 48.064C172.294 47.568 172.062 46.872 172.062 45.976C172.062 44.824 172.542 43.904 173.502 43.216C174.462 42.512 175.75 42.16 177.366 42.16C178.214 42.16 179.062 42.264 179.91 42.472C180.758 42.68 181.454 42.96 181.998 43.312L181.014 45.136C179.974 44.464 178.75 44.128 177.342 44.128C176.366 44.128 175.622 44.288 175.11 44.608C174.598 44.928 174.342 45.352 174.342 45.88C174.342 46.296 174.486 46.624 174.774 46.864C175.062 47.104 175.414 47.28 175.83 47.392C176.262 47.504 176.862 47.632 177.63 47.776C178.654 47.952 179.478 48.144 180.102 48.352C180.742 48.544 181.286 48.88 181.734 49.36C182.182 49.84 182.406 50.512 182.406 51.376C182.406 52.528 181.91 53.448 180.918 54.136C179.942 54.808 178.606 55.144 176.91 55.144ZM188.934 55.144C187.894 55.144 186.894 55.008 185.934 54.736C184.974 54.448 184.222 54.088 183.678 53.656L184.638 51.832C185.198 52.232 185.878 52.552 186.678 52.792C187.478 53.032 188.286 53.152 189.102 53.152C191.118 53.152 192.126 52.576 192.126 51.424C192.126 51.04 191.99 50.736 191.718 50.512C191.446 50.288 191.102 50.128 190.686 50.032C190.286 49.92 189.71 49.8 188.958 49.672C187.934 49.512 187.094 49.328 186.438 49.12C185.798 48.912 185.246 48.56 184.782 48.064C184.318 47.568 184.086 46.872 184.086 45.976C184.086 44.824 184.566 43.904 185.526 43.216C186.486 42.512 187.774 42.16 189.39 42.16C190.238 42.16 191.086 42.264 191.934 42.472C192.782 42.68 193.478 42.96 194.022 43.312L193.038 45.136C191.998 44.464 190.774 44.128 189.366 44.128C188.39 44.128 187.646 44.288 187.134 44.608C186.622 44.928 186.366 45.352 186.366 45.88C186.366 46.296 186.51 46.624 186.798 46.864C187.086 47.104 187.438 47.28 187.854 47.392C188.286 47.504 188.886 47.632 189.654 47.776C190.678 47.952 191.502 48.144 192.126 48.352C192.766 48.544 193.31 48.88 193.758 49.36C194.206 49.84 194.43 50.512 194.43 51.376C194.43 52.528 193.934 53.448 192.942 54.136C191.966 54.808 190.63 55.144 188.934 55.144Z" fill="#DCAC64"/>
<g filter="url(#filter0_d)">
<path d="M49.6667 5.35731H45.9895C44.6638 5.35731 43.5894 6.29632 43.5894 7.45466V19.1345C43.5894 20.2928 44.6638 21.2319 45.9895 21.2319H49.6667C50.9924 21.2319 52.0668 20.2928 52.0668 19.1345V7.45466C52.0668 6.29632 50.9924 5.35731 49.6667 5.35731Z" fill="#DCAC64" fill-opacity="0.95"/>
<path d="M35.9169 64.9407V53.8758H51.504L37.9845 65.69C37.815 65.8382 37.5991 65.939 37.364 65.9797C37.129 66.0204 36.8854 65.9996 36.664 65.9194C36.4426 65.8392 36.2535 65.7032 36.1205 65.5289C35.9875 65.355 35.9166 65.1501 35.9169 64.9407Z" fill="#DCAC64" fill-opacity="0.95"/>
<path d="M52.3391 53.1883H35.9169V54.5145H50.7425L52.3391 53.1883Z" fill="#DCAC64" fill-opacity="0.95"/>
<path d="M55.7152 20.4271L33.2837 0.823615C32.677 0.296124 31.856 0 31.0002 0C30.1444 0 29.3234 0.296124 28.7168 0.823615L6.28556 20.4271C4.91674 21.7574 4.11019 23.457 4 25.2434V28.6965C16.255 36.6639 31.1284 40.9569 46.403 40.9355C50.2876 40.9361 54.1659 40.6602 57.9994 40.1105V25.2434C57.8879 23.4575 57.0823 21.7583 55.7152 20.4271Z" fill="#DCAC64" fill-opacity="0.95"/>
<path d="M46.4036 44.1104C31.1291 44.1316 16.2557 39.8386 4.00062 31.8714V50.5241C4.00339 51.2719 4.34451 51.9881 4.94952 52.5167C5.55453 53.0456 6.37429 53.3435 7.2299 53.346H54.7711C55.6265 53.3435 56.4462 53.0452 57.0514 52.5167C57.6562 51.9878 57.9972 51.2716 58 50.5241V43.2855C54.1666 43.8351 50.2883 44.1111 46.4036 44.1104Z" fill="#DCAC64" fill-opacity="0.95"/>
</g>
<defs>
<filter id="filter0_d" x="0" y="0" width="62" height="74" filterUnits="userSpaceOnUse" color-interpolation-filters="sRGB">
<feFlood flood-opacity="0" result="BackgroundImageFix"/>
<feColorMatrix in="SourceAlpha" type="matrix" values="0 0 0 0 0 0 0 0 0 0 0 0 0 0 0 0 0 0 127 0"/>
<feOffset dy="4"/>
<feGaussianBlur stdDeviation="2"/>
<feColorMatrix type="matrix" values="0 0 0 0 0 0 0 0 0 0 0 0 0 0 0 0 0 0 0.25 0"/>
<feBlend mode="normal" in2="BackgroundImageFix" result="effect1_dropShadow"/>
<feBlend mode="normal" in="SourceGraphic" in2="effect1_dropShadow" result="shape"/>
</filter>
</defs>
</svg>
