<svg width="24" height="24" viewBox="0 0 24 24" fill="none" xmlns="http://www.w3.org/2000/svg">
<path fill-rule="evenodd" clip-rule="evenodd" d="M12.0015 15.9446L19.7695 23.4296C20.5487 24.1863 21.0557 24.194 21.8493 23.4296L23.4078 21.9275C24.1713 21.192 24.2231 20.7092 23.4078 19.9236L15.1839 12.0003L23.4085 4.07703C24.1788 3.33235 24.1938 2.82978 23.4085 2.07239L21.85 0.571032C21.0415 -0.208237 20.542 -0.172238 19.7702 0.571032L12.0015 8.05596L4.23359 0.571737C3.46182 -0.171532 2.96231 -0.207531 2.15379 0.571737L0.595251 2.0731C-0.190768 2.83049 -0.176517 3.33306 0.595251 4.07774L8.8192 12.0003L0.595251 19.9236C-0.220019 20.7092 -0.176517 21.192 0.595251 21.9275L2.15304 23.4296C2.93981 24.194 3.44682 24.1863 4.23284 23.4296L12.0015 15.9446Z" fill="#DCAC64"/>
</svg>
