<svg width="15" height="15" viewBox="0 0 15 15" fill="none" xmlns="http://www.w3.org/2000/svg">
<path fill-rule="evenodd" clip-rule="evenodd" d="M7.50095 9.9654L12.3559 14.6435C12.843 15.1164 13.1598 15.1213 13.6558 14.6435L14.6299 13.7047C15.1071 13.245 15.1394 12.9432 14.6299 12.4522L9.48991 7.50019L14.6303 2.54815C15.1118 2.08272 15.1211 1.76861 14.6303 1.29525L13.6563 0.356895C13.1509 -0.130148 12.8387 -0.107649 12.3564 0.356895L7.50095 5.03498L2.64599 0.357336C2.16364 -0.107208 1.85144 -0.129707 1.34612 0.357336L0.372032 1.29569C-0.11923 1.76905 -0.110323 2.08316 0.372032 2.54859L5.512 7.50019L0.372032 12.4522C-0.137512 12.9432 -0.110323 13.245 0.372032 13.7047L1.34565 14.6435C1.83738 15.1213 2.15426 15.1164 2.64552 14.6435L7.50095 9.9654Z" fill="white" fill-opacity="0.7"/>
</svg>
